<mxfile host="app.diagrams.net" modified="2021-02-04T13:57:06.693Z" agent="5.0 (X11; Linux x86_64) AppleWebKit/537.36 (KHTML, like Gecko) Chrome/88.0.4324.96 Safari/537.36" etag="MBVsjxcZ1ABHBDL9N3Q9" version="14.2.9" type="github">
  <diagram id="XTZovbi7HOjRICIGSqNF" name="第 1 页">
    <mxGraphModel dx="1355" dy="774" grid="1" gridSize="10" guides="1" tooltips="1" connect="1" arrows="1" fold="1" page="1" pageScale="1" pageWidth="827" pageHeight="1169" math="0" shadow="0">
      <root>
        <mxCell id="0" />
        <mxCell id="1" parent="0" />
        <mxCell id="q7BljXFhIfi4pyyEKuzE-1" value="&lt;font style=&quot;font-size: 16px&quot;&gt;Input&lt;/font&gt;" style="rounded=0;whiteSpace=wrap;html=1;" vertex="1" parent="1">
          <mxGeometry x="369" y="120" width="104" height="30" as="geometry" />
        </mxCell>
        <mxCell id="q7BljXFhIfi4pyyEKuzE-2" value="&lt;font style=&quot;font-size: 14px&quot;&gt;BasicConv1&lt;/font&gt;" style="rounded=0;whiteSpace=wrap;html=1;" vertex="1" parent="1">
          <mxGeometry x="360" y="171" width="120" height="30" as="geometry" />
        </mxCell>
        <mxCell id="q7BljXFhIfi4pyyEKuzE-3" value="" style="endArrow=classic;html=1;" edge="1" parent="1">
          <mxGeometry width="50" height="50" relative="1" as="geometry">
            <mxPoint x="419.86" y="150" as="sourcePoint" />
            <mxPoint x="419.86" y="171" as="targetPoint" />
          </mxGeometry>
        </mxCell>
        <mxCell id="q7BljXFhIfi4pyyEKuzE-4" value="&lt;font style=&quot;font-size: 14px&quot;&gt;BasicConv2&lt;/font&gt;" style="rounded=0;whiteSpace=wrap;html=1;" vertex="1" parent="1">
          <mxGeometry x="360" y="320" width="120" height="30" as="geometry" />
        </mxCell>
        <mxCell id="q7BljXFhIfi4pyyEKuzE-5" value="&lt;span style=&quot;font-size: 14px&quot;&gt;split(x, c//2, dim=1)&lt;/span&gt;" style="rounded=0;whiteSpace=wrap;html=1;" vertex="1" parent="1">
          <mxGeometry x="346" y="230" width="150" height="29" as="geometry" />
        </mxCell>
        <mxCell id="q7BljXFhIfi4pyyEKuzE-8" value="&lt;font style=&quot;font-size: 13px&quot;&gt;x&lt;/font&gt;" style="text;html=1;resizable=0;autosize=1;align=center;verticalAlign=middle;points=[];fillColor=none;strokeColor=none;rounded=0;" vertex="1" parent="1">
          <mxGeometry x="420" y="201" width="20" height="20" as="geometry" />
        </mxCell>
        <mxCell id="q7BljXFhIfi4pyyEKuzE-9" value="" style="endArrow=none;html=1;" edge="1" parent="1">
          <mxGeometry width="50" height="50" relative="1" as="geometry">
            <mxPoint x="320" y="210.57999999999998" as="sourcePoint" />
            <mxPoint x="420" y="210.92" as="targetPoint" />
          </mxGeometry>
        </mxCell>
        <mxCell id="q7BljXFhIfi4pyyEKuzE-10" value="&lt;font style=&quot;font-size: 14px&quot;&gt;Part1&lt;/font&gt;" style="rounded=0;whiteSpace=wrap;html=1;" vertex="1" parent="1">
          <mxGeometry x="346" y="270" width="60" height="30" as="geometry" />
        </mxCell>
        <mxCell id="q7BljXFhIfi4pyyEKuzE-11" value="&lt;font style=&quot;font-size: 14px&quot;&gt;Part2&lt;/font&gt;" style="rounded=0;whiteSpace=wrap;html=1;" vertex="1" parent="1">
          <mxGeometry x="416" y="270" width="80" height="30" as="geometry" />
        </mxCell>
        <mxCell id="q7BljXFhIfi4pyyEKuzE-15" value="" style="endArrow=classic;html=1;" edge="1" parent="1">
          <mxGeometry width="50" height="50" relative="1" as="geometry">
            <mxPoint x="420" y="259" as="sourcePoint" />
            <mxPoint x="466" y="269" as="targetPoint" />
          </mxGeometry>
        </mxCell>
        <mxCell id="q7BljXFhIfi4pyyEKuzE-16" value="" style="endArrow=classic;html=1;" edge="1" parent="1">
          <mxGeometry width="50" height="50" relative="1" as="geometry">
            <mxPoint x="420" y="259" as="sourcePoint" />
            <mxPoint x="376" y="269" as="targetPoint" />
          </mxGeometry>
        </mxCell>
        <mxCell id="q7BljXFhIfi4pyyEKuzE-18" value="" style="endArrow=classic;html=1;" edge="1" parent="1">
          <mxGeometry width="50" height="50" relative="1" as="geometry">
            <mxPoint x="419.8" y="201" as="sourcePoint" />
            <mxPoint x="419.8" y="231" as="targetPoint" />
          </mxGeometry>
        </mxCell>
        <mxCell id="q7BljXFhIfi4pyyEKuzE-20" value="" style="endArrow=classic;html=1;exitX=0.5;exitY=1;exitDx=0;exitDy=0;" edge="1" parent="1" source="q7BljXFhIfi4pyyEKuzE-11">
          <mxGeometry width="50" height="50" relative="1" as="geometry">
            <mxPoint x="420.76" y="300" as="sourcePoint" />
            <mxPoint x="421" y="320" as="targetPoint" />
          </mxGeometry>
        </mxCell>
        <mxCell id="q7BljXFhIfi4pyyEKuzE-21" value="" style="endArrow=classic;html=1;" edge="1" parent="1">
          <mxGeometry width="50" height="50" relative="1" as="geometry">
            <mxPoint x="419" y="350" as="sourcePoint" />
            <mxPoint x="419" y="380" as="targetPoint" />
          </mxGeometry>
        </mxCell>
        <mxCell id="q7BljXFhIfi4pyyEKuzE-22" value="" style="endArrow=none;html=1;" edge="1" parent="1">
          <mxGeometry width="50" height="50" relative="1" as="geometry">
            <mxPoint x="420" y="360" as="sourcePoint" />
            <mxPoint x="519" y="360" as="targetPoint" />
          </mxGeometry>
        </mxCell>
        <mxCell id="q7BljXFhIfi4pyyEKuzE-24" value="route1" style="text;html=1;resizable=0;autosize=1;align=center;verticalAlign=middle;points=[];fillColor=none;strokeColor=none;rounded=0;" vertex="1" parent="1">
          <mxGeometry x="270" y="385" width="50" height="20" as="geometry" />
        </mxCell>
        <mxCell id="q7BljXFhIfi4pyyEKuzE-25" value="&lt;font style=&quot;font-size: 14px&quot;&gt;BasicConv3&lt;/font&gt;" style="rounded=0;whiteSpace=wrap;html=1;" vertex="1" parent="1">
          <mxGeometry x="360" y="380" width="120" height="30" as="geometry" />
        </mxCell>
        <mxCell id="q7BljXFhIfi4pyyEKuzE-26" value="" style="endArrow=classic;html=1;" edge="1" parent="1">
          <mxGeometry width="50" height="50" relative="1" as="geometry">
            <mxPoint x="420.2200000000001" y="410" as="sourcePoint" />
            <mxPoint x="419.79" y="430" as="targetPoint" />
          </mxGeometry>
        </mxCell>
        <mxCell id="q7BljXFhIfi4pyyEKuzE-27" value="&lt;font style=&quot;font-size: 12px&quot;&gt;ConCat&lt;/font&gt;" style="rounded=0;whiteSpace=wrap;html=1;" vertex="1" parent="1">
          <mxGeometry x="379" y="430" width="76" height="20" as="geometry" />
        </mxCell>
        <mxCell id="q7BljXFhIfi4pyyEKuzE-28" value="" style="endArrow=none;html=1;" edge="1" parent="1">
          <mxGeometry width="50" height="50" relative="1" as="geometry">
            <mxPoint x="519" y="440" as="sourcePoint" />
            <mxPoint x="519" y="360" as="targetPoint" />
          </mxGeometry>
        </mxCell>
        <mxCell id="q7BljXFhIfi4pyyEKuzE-29" value="" style="endArrow=classic;html=1;" edge="1" parent="1">
          <mxGeometry width="50" height="50" relative="1" as="geometry">
            <mxPoint x="320" y="529.88" as="sourcePoint" />
            <mxPoint x="383" y="529.71" as="targetPoint" />
            <Array as="points">
              <mxPoint x="383" y="529.71" />
            </Array>
          </mxGeometry>
        </mxCell>
        <mxCell id="q7BljXFhIfi4pyyEKuzE-31" value="&lt;font style=&quot;font-size: 14px&quot;&gt;BasicConv4&lt;/font&gt;" style="rounded=0;whiteSpace=wrap;html=1;" vertex="1" parent="1">
          <mxGeometry x="360" y="470" width="120" height="30" as="geometry" />
        </mxCell>
        <mxCell id="q7BljXFhIfi4pyyEKuzE-32" value="" style="endArrow=classic;html=1;" edge="1" parent="1">
          <mxGeometry width="50" height="50" relative="1" as="geometry">
            <mxPoint x="420.19000000000005" y="450" as="sourcePoint" />
            <mxPoint x="419.76" y="470" as="targetPoint" />
          </mxGeometry>
        </mxCell>
        <mxCell id="q7BljXFhIfi4pyyEKuzE-33" value="" style="endArrow=classic;html=1;" edge="1" parent="1">
          <mxGeometry width="50" height="50" relative="1" as="geometry">
            <mxPoint x="420.66" y="500" as="sourcePoint" />
            <mxPoint x="421" y="520" as="targetPoint" />
          </mxGeometry>
        </mxCell>
        <mxCell id="q7BljXFhIfi4pyyEKuzE-34" value="&lt;font style=&quot;font-size: 12px&quot;&gt;ConCat&lt;/font&gt;" style="rounded=0;whiteSpace=wrap;html=1;" vertex="1" parent="1">
          <mxGeometry x="383" y="520" width="76" height="20" as="geometry" />
        </mxCell>
        <mxCell id="q7BljXFhIfi4pyyEKuzE-35" value="" style="endArrow=none;html=1;" edge="1" parent="1">
          <mxGeometry width="50" height="50" relative="1" as="geometry">
            <mxPoint x="320" y="530" as="sourcePoint" />
            <mxPoint x="320.43" y="210" as="targetPoint" />
          </mxGeometry>
        </mxCell>
        <mxCell id="q7BljXFhIfi4pyyEKuzE-36" value="" style="endArrow=classic;html=1;" edge="1" parent="1">
          <mxGeometry width="50" height="50" relative="1" as="geometry">
            <mxPoint x="519" y="440" as="sourcePoint" />
            <mxPoint x="454" y="439.71" as="targetPoint" />
          </mxGeometry>
        </mxCell>
        <mxCell id="q7BljXFhIfi4pyyEKuzE-37" value="route2" style="text;html=1;resizable=0;autosize=1;align=center;verticalAlign=middle;points=[];fillColor=none;strokeColor=none;rounded=0;" vertex="1" parent="1">
          <mxGeometry x="520" y="385" width="50" height="20" as="geometry" />
        </mxCell>
        <mxCell id="q7BljXFhIfi4pyyEKuzE-38" value="" style="endArrow=classic;html=1;" edge="1" parent="1">
          <mxGeometry width="50" height="50" relative="1" as="geometry">
            <mxPoint x="421" y="510" as="sourcePoint" />
            <mxPoint x="510" y="510" as="targetPoint" />
          </mxGeometry>
        </mxCell>
        <mxCell id="q7BljXFhIfi4pyyEKuzE-39" value="&lt;font style=&quot;font-size: 12px&quot;&gt;MaxPool&lt;/font&gt;" style="rounded=0;whiteSpace=wrap;html=1;" vertex="1" parent="1">
          <mxGeometry x="383" y="560" width="76" height="20" as="geometry" />
        </mxCell>
        <mxCell id="q7BljXFhIfi4pyyEKuzE-40" value="" style="endArrow=classic;html=1;" edge="1" parent="1">
          <mxGeometry width="50" height="50" relative="1" as="geometry">
            <mxPoint x="419.95000000000005" y="540" as="sourcePoint" />
            <mxPoint x="419.52" y="560" as="targetPoint" />
          </mxGeometry>
        </mxCell>
        <mxCell id="q7BljXFhIfi4pyyEKuzE-41" value="" style="endArrow=classic;html=1;" edge="1" parent="1">
          <mxGeometry width="50" height="50" relative="1" as="geometry">
            <mxPoint x="460" y="569.66" as="sourcePoint" />
            <mxPoint x="510" y="570" as="targetPoint" />
          </mxGeometry>
        </mxCell>
        <mxCell id="q7BljXFhIfi4pyyEKuzE-42" value="&lt;font style=&quot;font-size: 12px&quot;&gt;Feat1&lt;/font&gt;" style="rounded=0;whiteSpace=wrap;html=1;" vertex="1" parent="1">
          <mxGeometry x="510" y="500" width="76" height="20" as="geometry" />
        </mxCell>
        <mxCell id="q7BljXFhIfi4pyyEKuzE-43" value="&lt;font style=&quot;font-size: 12px&quot;&gt;Feat2&lt;/font&gt;" style="rounded=0;whiteSpace=wrap;html=1;" vertex="1" parent="1">
          <mxGeometry x="510" y="560" width="76" height="20" as="geometry" />
        </mxCell>
      </root>
    </mxGraphModel>
  </diagram>
</mxfile>
